<mxfile host="65bd71144e">
    <diagram id="s0lQ1JfIGYU9ZbKCxSDH" name="Page-1">
        <mxGraphModel dx="1180" dy="479" grid="0" gridSize="10" guides="1" tooltips="1" connect="1" arrows="0" fold="1" page="1" pageScale="1" pageWidth="850" pageHeight="1100" math="0" shadow="0">
            <root>
                <mxCell id="0"/>
                <mxCell id="1" parent="0"/>
                <mxCell id="2" value="User" style="shape=table;startSize=30;container=1;collapsible=0;childLayout=tableLayout;" parent="1" vertex="1">
                    <mxGeometry x="36" y="327" width="762" height="289" as="geometry"/>
                </mxCell>
                <mxCell id="3" value="" style="shape=tableRow;horizontal=0;startSize=0;swimlaneHead=0;swimlaneBody=0;top=0;left=0;bottom=0;right=0;collapsible=0;dropTarget=0;fillColor=none;points=[[0,0.5],[1,0.5]];portConstraint=eastwest;" parent="2" vertex="1">
                    <mxGeometry y="30" width="762" height="86" as="geometry"/>
                </mxCell>
                <mxCell id="4" value="id" style="shape=partialRectangle;html=1;whiteSpace=wrap;connectable=0;overflow=hidden;fillColor=none;top=0;left=0;bottom=0;right=0;pointerEvents=1;" parent="3" vertex="1">
                    <mxGeometry width="191" height="86" as="geometry">
                        <mxRectangle width="191" height="86" as="alternateBounds"/>
                    </mxGeometry>
                </mxCell>
                <mxCell id="5" value="name" style="shape=partialRectangle;html=1;whiteSpace=wrap;connectable=0;overflow=hidden;fillColor=none;top=0;left=0;bottom=0;right=0;pointerEvents=1;" parent="3" vertex="1">
                    <mxGeometry x="191" width="190" height="86" as="geometry">
                        <mxRectangle width="190" height="86" as="alternateBounds"/>
                    </mxGeometry>
                </mxCell>
                <mxCell id="6" value="username" style="shape=partialRectangle;html=1;whiteSpace=wrap;connectable=0;overflow=hidden;fillColor=none;top=0;left=0;bottom=0;right=0;pointerEvents=1;" parent="3" vertex="1">
                    <mxGeometry x="381" width="191" height="86" as="geometry">
                        <mxRectangle width="191" height="86" as="alternateBounds"/>
                    </mxGeometry>
                </mxCell>
                <mxCell id="7" value="password(hashed)" style="shape=partialRectangle;html=1;whiteSpace=wrap;connectable=0;overflow=hidden;fillColor=none;top=0;left=0;bottom=0;right=0;pointerEvents=1;" parent="3" vertex="1">
                    <mxGeometry x="572" width="190" height="86" as="geometry">
                        <mxRectangle width="190" height="86" as="alternateBounds"/>
                    </mxGeometry>
                </mxCell>
                <mxCell id="8" value="" style="shape=tableRow;horizontal=0;startSize=0;swimlaneHead=0;swimlaneBody=0;top=0;left=0;bottom=0;right=0;collapsible=0;dropTarget=0;fillColor=none;points=[[0,0.5],[1,0.5]];portConstraint=eastwest;" parent="2" vertex="1">
                    <mxGeometry y="116" width="762" height="86" as="geometry"/>
                </mxCell>
                <mxCell id="9" value="1" style="shape=partialRectangle;html=1;whiteSpace=wrap;connectable=0;overflow=hidden;fillColor=none;top=0;left=0;bottom=0;right=0;pointerEvents=1;" parent="8" vertex="1">
                    <mxGeometry width="191" height="86" as="geometry">
                        <mxRectangle width="191" height="86" as="alternateBounds"/>
                    </mxGeometry>
                </mxCell>
                <mxCell id="10" value="John Smith" style="shape=partialRectangle;html=1;whiteSpace=wrap;connectable=0;overflow=hidden;fillColor=none;top=0;left=0;bottom=0;right=0;pointerEvents=1;" parent="8" vertex="1">
                    <mxGeometry x="191" width="190" height="86" as="geometry">
                        <mxRectangle width="190" height="86" as="alternateBounds"/>
                    </mxGeometry>
                </mxCell>
                <mxCell id="11" value="John&lt;span style=&quot;white-space: pre;&quot;&gt; &lt;/span&gt;" style="shape=partialRectangle;html=1;whiteSpace=wrap;connectable=0;overflow=hidden;fillColor=none;top=0;left=0;bottom=0;right=0;pointerEvents=1;" parent="8" vertex="1">
                    <mxGeometry x="381" width="191" height="86" as="geometry">
                        <mxRectangle width="191" height="86" as="alternateBounds"/>
                    </mxGeometry>
                </mxCell>
                <mxCell id="12" value="abc1" style="shape=partialRectangle;html=1;whiteSpace=wrap;connectable=0;overflow=hidden;fillColor=none;top=0;left=0;bottom=0;right=0;pointerEvents=1;" parent="8" vertex="1">
                    <mxGeometry x="572" width="190" height="86" as="geometry">
                        <mxRectangle width="190" height="86" as="alternateBounds"/>
                    </mxGeometry>
                </mxCell>
                <mxCell id="13" value="" style="shape=tableRow;horizontal=0;startSize=0;swimlaneHead=0;swimlaneBody=0;top=0;left=0;bottom=0;right=0;collapsible=0;dropTarget=0;fillColor=none;points=[[0,0.5],[1,0.5]];portConstraint=eastwest;" parent="2" vertex="1">
                    <mxGeometry y="202" width="762" height="87" as="geometry"/>
                </mxCell>
                <mxCell id="14" value="2" style="shape=partialRectangle;html=1;whiteSpace=wrap;connectable=0;overflow=hidden;fillColor=none;top=0;left=0;bottom=0;right=0;pointerEvents=1;" parent="13" vertex="1">
                    <mxGeometry width="191" height="87" as="geometry">
                        <mxRectangle width="191" height="87" as="alternateBounds"/>
                    </mxGeometry>
                </mxCell>
                <mxCell id="15" value="Wayne Rooney" style="shape=partialRectangle;html=1;whiteSpace=wrap;connectable=0;overflow=hidden;fillColor=none;top=0;left=0;bottom=0;right=0;pointerEvents=1;" parent="13" vertex="1">
                    <mxGeometry x="191" width="190" height="87" as="geometry">
                        <mxRectangle width="190" height="87" as="alternateBounds"/>
                    </mxGeometry>
                </mxCell>
                <mxCell id="16" value="Wayne" style="shape=partialRectangle;html=1;whiteSpace=wrap;connectable=0;overflow=hidden;fillColor=none;top=0;left=0;bottom=0;right=0;pointerEvents=1;" parent="13" vertex="1">
                    <mxGeometry x="381" width="191" height="87" as="geometry">
                        <mxRectangle width="191" height="87" as="alternateBounds"/>
                    </mxGeometry>
                </mxCell>
                <mxCell id="17" value="abc1" style="shape=partialRectangle;html=1;whiteSpace=wrap;connectable=0;overflow=hidden;fillColor=none;top=0;left=0;bottom=0;right=0;pointerEvents=1;" parent="13" vertex="1">
                    <mxGeometry x="572" width="190" height="87" as="geometry">
                        <mxRectangle width="190" height="87" as="alternateBounds"/>
                    </mxGeometry>
                </mxCell>
                <mxCell id="60" value="Prescription" style="shape=table;startSize=30;container=1;collapsible=0;childLayout=tableLayout;" parent="1" vertex="1">
                    <mxGeometry x="862" y="332.5" width="827" height="278" as="geometry"/>
                </mxCell>
                <mxCell id="61" value="" style="shape=tableRow;horizontal=0;startSize=0;swimlaneHead=0;swimlaneBody=0;top=0;left=0;bottom=0;right=0;collapsible=0;dropTarget=0;fillColor=none;points=[[0,0.5],[1,0.5]];portConstraint=eastwest;" parent="60" vertex="1">
                    <mxGeometry y="30" width="827" height="62" as="geometry"/>
                </mxCell>
                <mxCell id="62" value="id" style="shape=partialRectangle;html=1;whiteSpace=wrap;connectable=0;overflow=hidden;fillColor=none;top=0;left=0;bottom=0;right=0;pointerEvents=1;" parent="61" vertex="1">
                    <mxGeometry width="89" height="62" as="geometry">
                        <mxRectangle width="89" height="62" as="alternateBounds"/>
                    </mxGeometry>
                </mxCell>
                <mxCell id="63" value="user_id(FK)" style="shape=partialRectangle;html=1;whiteSpace=wrap;connectable=0;overflow=hidden;fillColor=none;top=0;left=0;bottom=0;right=0;pointerEvents=1;" parent="61" vertex="1">
                    <mxGeometry x="89" width="89" height="62" as="geometry">
                        <mxRectangle width="89" height="62" as="alternateBounds"/>
                    </mxGeometry>
                </mxCell>
                <mxCell id="64" value="doctor_id(FK)" style="shape=partialRectangle;html=1;whiteSpace=wrap;connectable=0;overflow=hidden;fillColor=none;top=0;left=0;bottom=0;right=0;pointerEvents=1;" parent="61" vertex="1">
                    <mxGeometry x="178" width="89" height="62" as="geometry">
                        <mxRectangle width="89" height="62" as="alternateBounds"/>
                    </mxGeometry>
                </mxCell>
                <mxCell id="65" value="name" style="shape=partialRectangle;html=1;whiteSpace=wrap;connectable=0;overflow=hidden;fillColor=none;top=0;left=0;bottom=0;right=0;pointerEvents=1;" parent="61" vertex="1">
                    <mxGeometry x="267" width="90" height="62" as="geometry">
                        <mxRectangle width="90" height="62" as="alternateBounds"/>
                    </mxGeometry>
                </mxCell>
                <mxCell id="135" value="direction" style="shape=partialRectangle;html=1;whiteSpace=wrap;connectable=0;overflow=hidden;fillColor=none;top=0;left=0;bottom=0;right=0;pointerEvents=1;" parent="61" vertex="1">
                    <mxGeometry x="357" width="117" height="62" as="geometry">
                        <mxRectangle width="117" height="62" as="alternateBounds"/>
                    </mxGeometry>
                </mxCell>
                <mxCell id="139" value="start_date" style="shape=partialRectangle;html=1;whiteSpace=wrap;connectable=0;overflow=hidden;fillColor=none;top=0;left=0;bottom=0;right=0;pointerEvents=1;" parent="61" vertex="1">
                    <mxGeometry x="474" width="118" height="62" as="geometry">
                        <mxRectangle width="118" height="62" as="alternateBounds"/>
                    </mxGeometry>
                </mxCell>
                <mxCell id="66" value="end_date" style="shape=partialRectangle;html=1;whiteSpace=wrap;connectable=0;overflow=hidden;fillColor=none;top=0;left=0;bottom=0;right=0;pointerEvents=1;" parent="61" vertex="1">
                    <mxGeometry x="592" width="117" height="62" as="geometry">
                        <mxRectangle width="117" height="62" as="alternateBounds"/>
                    </mxGeometry>
                </mxCell>
                <mxCell id="131" value="completed" style="shape=partialRectangle;html=1;whiteSpace=wrap;connectable=0;overflow=hidden;fillColor=none;top=0;left=0;bottom=0;right=0;pointerEvents=1;" parent="61" vertex="1">
                    <mxGeometry x="709" width="118" height="62" as="geometry">
                        <mxRectangle width="118" height="62" as="alternateBounds"/>
                    </mxGeometry>
                </mxCell>
                <mxCell id="67" value="" style="shape=tableRow;horizontal=0;startSize=0;swimlaneHead=0;swimlaneBody=0;top=0;left=0;bottom=0;right=0;collapsible=0;dropTarget=0;fillColor=none;points=[[0,0.5],[1,0.5]];portConstraint=eastwest;" parent="60" vertex="1">
                    <mxGeometry y="92" width="827" height="62" as="geometry"/>
                </mxCell>
                <mxCell id="68" value="1" style="shape=partialRectangle;html=1;whiteSpace=wrap;connectable=0;overflow=hidden;fillColor=none;top=0;left=0;bottom=0;right=0;pointerEvents=1;" parent="67" vertex="1">
                    <mxGeometry width="89" height="62" as="geometry">
                        <mxRectangle width="89" height="62" as="alternateBounds"/>
                    </mxGeometry>
                </mxCell>
                <mxCell id="69" value="1" style="shape=partialRectangle;html=1;whiteSpace=wrap;connectable=0;overflow=hidden;fillColor=none;top=0;left=0;bottom=0;right=0;pointerEvents=1;" parent="67" vertex="1">
                    <mxGeometry x="89" width="89" height="62" as="geometry">
                        <mxRectangle width="89" height="62" as="alternateBounds"/>
                    </mxGeometry>
                </mxCell>
                <mxCell id="70" value="1" style="shape=partialRectangle;html=1;whiteSpace=wrap;connectable=0;overflow=hidden;fillColor=none;top=0;left=0;bottom=0;right=0;pointerEvents=1;" parent="67" vertex="1">
                    <mxGeometry x="178" width="89" height="62" as="geometry">
                        <mxRectangle width="89" height="62" as="alternateBounds"/>
                    </mxGeometry>
                </mxCell>
                <mxCell id="71" value="Tylenol 325mg" style="shape=partialRectangle;html=1;whiteSpace=wrap;connectable=0;overflow=hidden;fillColor=none;top=0;left=0;bottom=0;right=0;pointerEvents=1;" parent="67" vertex="1">
                    <mxGeometry x="267" width="90" height="62" as="geometry">
                        <mxRectangle width="90" height="62" as="alternateBounds"/>
                    </mxGeometry>
                </mxCell>
                <mxCell id="136" value="Take 1 tablet three times a day" style="shape=partialRectangle;html=1;whiteSpace=wrap;connectable=0;overflow=hidden;fillColor=none;top=0;left=0;bottom=0;right=0;pointerEvents=1;" parent="67" vertex="1">
                    <mxGeometry x="357" width="117" height="62" as="geometry">
                        <mxRectangle width="117" height="62" as="alternateBounds"/>
                    </mxGeometry>
                </mxCell>
                <mxCell id="140" value="2024-02-20" style="shape=partialRectangle;html=1;whiteSpace=wrap;connectable=0;overflow=hidden;fillColor=none;top=0;left=0;bottom=0;right=0;pointerEvents=1;" parent="67" vertex="1">
                    <mxGeometry x="474" width="118" height="62" as="geometry">
                        <mxRectangle width="118" height="62" as="alternateBounds"/>
                    </mxGeometry>
                </mxCell>
                <mxCell id="72" value="2024-02-25" style="shape=partialRectangle;html=1;whiteSpace=wrap;connectable=0;overflow=hidden;fillColor=none;top=0;left=0;bottom=0;right=0;pointerEvents=1;" parent="67" vertex="1">
                    <mxGeometry x="592" width="117" height="62" as="geometry">
                        <mxRectangle width="117" height="62" as="alternateBounds"/>
                    </mxGeometry>
                </mxCell>
                <mxCell id="132" value="false" style="shape=partialRectangle;html=1;whiteSpace=wrap;connectable=0;overflow=hidden;fillColor=none;top=0;left=0;bottom=0;right=0;pointerEvents=1;" parent="67" vertex="1">
                    <mxGeometry x="709" width="118" height="62" as="geometry">
                        <mxRectangle width="118" height="62" as="alternateBounds"/>
                    </mxGeometry>
                </mxCell>
                <mxCell id="73" value="" style="shape=tableRow;horizontal=0;startSize=0;swimlaneHead=0;swimlaneBody=0;top=0;left=0;bottom=0;right=0;collapsible=0;dropTarget=0;fillColor=none;points=[[0,0.5],[1,0.5]];portConstraint=eastwest;" parent="60" vertex="1">
                    <mxGeometry y="154" width="827" height="62" as="geometry"/>
                </mxCell>
                <mxCell id="74" value="2" style="shape=partialRectangle;html=1;whiteSpace=wrap;connectable=0;overflow=hidden;fillColor=none;top=0;left=0;bottom=0;right=0;pointerEvents=1;" parent="73" vertex="1">
                    <mxGeometry width="89" height="62" as="geometry">
                        <mxRectangle width="89" height="62" as="alternateBounds"/>
                    </mxGeometry>
                </mxCell>
                <mxCell id="75" value="2" style="shape=partialRectangle;html=1;whiteSpace=wrap;connectable=0;overflow=hidden;fillColor=none;top=0;left=0;bottom=0;right=0;pointerEvents=1;" parent="73" vertex="1">
                    <mxGeometry x="89" width="89" height="62" as="geometry">
                        <mxRectangle width="89" height="62" as="alternateBounds"/>
                    </mxGeometry>
                </mxCell>
                <mxCell id="76" value="2" style="shape=partialRectangle;html=1;whiteSpace=wrap;connectable=0;overflow=hidden;fillColor=none;top=0;left=0;bottom=0;right=0;pointerEvents=1;" parent="73" vertex="1">
                    <mxGeometry x="178" width="89" height="62" as="geometry">
                        <mxRectangle width="89" height="62" as="alternateBounds"/>
                    </mxGeometry>
                </mxCell>
                <mxCell id="77" value="Advil 800mg" style="shape=partialRectangle;html=1;whiteSpace=wrap;connectable=0;overflow=hidden;fillColor=none;top=0;left=0;bottom=0;right=0;pointerEvents=1;" parent="73" vertex="1">
                    <mxGeometry x="267" width="90" height="62" as="geometry">
                        <mxRectangle width="90" height="62" as="alternateBounds"/>
                    </mxGeometry>
                </mxCell>
                <mxCell id="137" value="Take 1 tablet two times a day" style="shape=partialRectangle;html=1;whiteSpace=wrap;connectable=0;overflow=hidden;fillColor=none;top=0;left=0;bottom=0;right=0;pointerEvents=1;" parent="73" vertex="1">
                    <mxGeometry x="357" width="117" height="62" as="geometry">
                        <mxRectangle width="117" height="62" as="alternateBounds"/>
                    </mxGeometry>
                </mxCell>
                <mxCell id="141" value="2024-02-20" style="shape=partialRectangle;html=1;whiteSpace=wrap;connectable=0;overflow=hidden;fillColor=none;top=0;left=0;bottom=0;right=0;pointerEvents=1;" parent="73" vertex="1">
                    <mxGeometry x="474" width="118" height="62" as="geometry">
                        <mxRectangle width="118" height="62" as="alternateBounds"/>
                    </mxGeometry>
                </mxCell>
                <mxCell id="78" value="2024-02-25" style="shape=partialRectangle;html=1;whiteSpace=wrap;connectable=0;overflow=hidden;fillColor=none;top=0;left=0;bottom=0;right=0;pointerEvents=1;" parent="73" vertex="1">
                    <mxGeometry x="592" width="117" height="62" as="geometry">
                        <mxRectangle width="117" height="62" as="alternateBounds"/>
                    </mxGeometry>
                </mxCell>
                <mxCell id="133" value="false" style="shape=partialRectangle;html=1;whiteSpace=wrap;connectable=0;overflow=hidden;fillColor=none;top=0;left=0;bottom=0;right=0;pointerEvents=1;" parent="73" vertex="1">
                    <mxGeometry x="709" width="118" height="62" as="geometry">
                        <mxRectangle width="118" height="62" as="alternateBounds"/>
                    </mxGeometry>
                </mxCell>
                <mxCell id="79" value="" style="shape=tableRow;horizontal=0;startSize=0;swimlaneHead=0;swimlaneBody=0;top=0;left=0;bottom=0;right=0;collapsible=0;dropTarget=0;fillColor=none;points=[[0,0.5],[1,0.5]];portConstraint=eastwest;" parent="60" vertex="1">
                    <mxGeometry y="216" width="827" height="62" as="geometry"/>
                </mxCell>
                <mxCell id="80" value="3" style="shape=partialRectangle;html=1;whiteSpace=wrap;connectable=0;overflow=hidden;fillColor=none;top=0;left=0;bottom=0;right=0;pointerEvents=1;" parent="79" vertex="1">
                    <mxGeometry width="89" height="62" as="geometry">
                        <mxRectangle width="89" height="62" as="alternateBounds"/>
                    </mxGeometry>
                </mxCell>
                <mxCell id="81" value="1" style="shape=partialRectangle;html=1;whiteSpace=wrap;connectable=0;overflow=hidden;fillColor=none;top=0;left=0;bottom=0;right=0;pointerEvents=1;" parent="79" vertex="1">
                    <mxGeometry x="89" width="89" height="62" as="geometry">
                        <mxRectangle width="89" height="62" as="alternateBounds"/>
                    </mxGeometry>
                </mxCell>
                <mxCell id="82" value="2" style="shape=partialRectangle;html=1;whiteSpace=wrap;connectable=0;overflow=hidden;fillColor=none;top=0;left=0;bottom=0;right=0;pointerEvents=1;" parent="79" vertex="1">
                    <mxGeometry x="178" width="89" height="62" as="geometry">
                        <mxRectangle width="89" height="62" as="alternateBounds"/>
                    </mxGeometry>
                </mxCell>
                <mxCell id="83" value="Lipitor 20mg" style="shape=partialRectangle;html=1;whiteSpace=wrap;connectable=0;overflow=hidden;fillColor=none;top=0;left=0;bottom=0;right=0;pointerEvents=1;" parent="79" vertex="1">
                    <mxGeometry x="267" width="90" height="62" as="geometry">
                        <mxRectangle width="90" height="62" as="alternateBounds"/>
                    </mxGeometry>
                </mxCell>
                <mxCell id="138" value="Take 1 tablet once a day" style="shape=partialRectangle;html=1;whiteSpace=wrap;connectable=0;overflow=hidden;fillColor=none;top=0;left=0;bottom=0;right=0;pointerEvents=1;" parent="79" vertex="1">
                    <mxGeometry x="357" width="117" height="62" as="geometry">
                        <mxRectangle width="117" height="62" as="alternateBounds"/>
                    </mxGeometry>
                </mxCell>
                <mxCell id="142" value="2024-02-20" style="shape=partialRectangle;html=1;whiteSpace=wrap;connectable=0;overflow=hidden;fillColor=none;top=0;left=0;bottom=0;right=0;pointerEvents=1;" parent="79" vertex="1">
                    <mxGeometry x="474" width="118" height="62" as="geometry">
                        <mxRectangle width="118" height="62" as="alternateBounds"/>
                    </mxGeometry>
                </mxCell>
                <mxCell id="84" value="2024-03-20" style="shape=partialRectangle;html=1;whiteSpace=wrap;connectable=0;overflow=hidden;fillColor=none;top=0;left=0;bottom=0;right=0;pointerEvents=1;" parent="79" vertex="1">
                    <mxGeometry x="592" width="117" height="62" as="geometry">
                        <mxRectangle width="117" height="62" as="alternateBounds"/>
                    </mxGeometry>
                </mxCell>
                <mxCell id="134" value="false" style="shape=partialRectangle;html=1;whiteSpace=wrap;connectable=0;overflow=hidden;fillColor=none;top=0;left=0;bottom=0;right=0;pointerEvents=1;" parent="79" vertex="1">
                    <mxGeometry x="709" width="118" height="62" as="geometry">
                        <mxRectangle width="118" height="62" as="alternateBounds"/>
                    </mxGeometry>
                </mxCell>
                <mxCell id="143" value="Doctor" style="shape=table;startSize=25;container=1;collapsible=0;childLayout=tableLayout;" parent="1" vertex="1">
                    <mxGeometry x="1737" y="327" width="532" height="280" as="geometry"/>
                </mxCell>
                <mxCell id="144" value="" style="shape=tableRow;horizontal=0;startSize=0;swimlaneHead=0;swimlaneBody=0;top=0;left=0;bottom=0;right=0;collapsible=0;dropTarget=0;fillColor=none;points=[[0,0.5],[1,0.5]];portConstraint=eastwest;" parent="143" vertex="1">
                    <mxGeometry y="25" width="532" height="86" as="geometry"/>
                </mxCell>
                <mxCell id="145" value="id" style="shape=partialRectangle;html=1;whiteSpace=wrap;connectable=0;overflow=hidden;fillColor=none;top=0;left=0;bottom=0;right=0;pointerEvents=1;" parent="144" vertex="1">
                    <mxGeometry width="266" height="86" as="geometry">
                        <mxRectangle width="266" height="86" as="alternateBounds"/>
                    </mxGeometry>
                </mxCell>
                <mxCell id="146" value="name" style="shape=partialRectangle;html=1;whiteSpace=wrap;connectable=0;overflow=hidden;fillColor=none;top=0;left=0;bottom=0;right=0;pointerEvents=1;" parent="144" vertex="1">
                    <mxGeometry x="266" width="266" height="86" as="geometry">
                        <mxRectangle width="266" height="86" as="alternateBounds"/>
                    </mxGeometry>
                </mxCell>
                <mxCell id="147" value="" style="shape=tableRow;horizontal=0;startSize=0;swimlaneHead=0;swimlaneBody=0;top=0;left=0;bottom=0;right=0;collapsible=0;dropTarget=0;fillColor=none;points=[[0,0.5],[1,0.5]];portConstraint=eastwest;" parent="143" vertex="1">
                    <mxGeometry y="111" width="532" height="83" as="geometry"/>
                </mxCell>
                <mxCell id="148" value="1" style="shape=partialRectangle;html=1;whiteSpace=wrap;connectable=0;overflow=hidden;fillColor=none;top=0;left=0;bottom=0;right=0;pointerEvents=1;" parent="147" vertex="1">
                    <mxGeometry width="266" height="83" as="geometry">
                        <mxRectangle width="266" height="83" as="alternateBounds"/>
                    </mxGeometry>
                </mxCell>
                <mxCell id="149" value="Helen Jones" style="shape=partialRectangle;html=1;whiteSpace=wrap;connectable=0;overflow=hidden;fillColor=none;top=0;left=0;bottom=0;right=0;pointerEvents=1;" parent="147" vertex="1">
                    <mxGeometry x="266" width="266" height="83" as="geometry">
                        <mxRectangle width="266" height="83" as="alternateBounds"/>
                    </mxGeometry>
                </mxCell>
                <mxCell id="150" value="" style="shape=tableRow;horizontal=0;startSize=0;swimlaneHead=0;swimlaneBody=0;top=0;left=0;bottom=0;right=0;collapsible=0;dropTarget=0;fillColor=none;points=[[0,0.5],[1,0.5]];portConstraint=eastwest;" parent="143" vertex="1">
                    <mxGeometry y="194" width="532" height="86" as="geometry"/>
                </mxCell>
                <mxCell id="151" value="2" style="shape=partialRectangle;html=1;whiteSpace=wrap;connectable=0;overflow=hidden;fillColor=none;top=0;left=0;bottom=0;right=0;pointerEvents=1;" parent="150" vertex="1">
                    <mxGeometry width="266" height="86" as="geometry">
                        <mxRectangle width="266" height="86" as="alternateBounds"/>
                    </mxGeometry>
                </mxCell>
                <mxCell id="152" value="James Madison" style="shape=partialRectangle;html=1;whiteSpace=wrap;connectable=0;overflow=hidden;fillColor=none;top=0;left=0;bottom=0;right=0;pointerEvents=1;" parent="150" vertex="1">
                    <mxGeometry x="266" width="266" height="86" as="geometry">
                        <mxRectangle width="266" height="86" as="alternateBounds"/>
                    </mxGeometry>
                </mxCell>
                <mxCell id="156" value="Dosage history" style="shape=table;startSize=30;container=1;collapsible=0;childLayout=tableLayout;" parent="1" vertex="1">
                    <mxGeometry x="920" y="646" width="711" height="427" as="geometry"/>
                </mxCell>
                <mxCell id="157" value="" style="shape=tableRow;horizontal=0;startSize=0;swimlaneHead=0;swimlaneBody=0;top=0;left=0;bottom=0;right=0;collapsible=0;dropTarget=0;fillColor=none;points=[[0,0.5],[1,0.5]];portConstraint=eastwest;" parent="156" vertex="1">
                    <mxGeometry y="30" width="711" height="71" as="geometry"/>
                </mxCell>
                <mxCell id="158" value="id" style="shape=partialRectangle;html=1;whiteSpace=wrap;connectable=0;overflow=hidden;fillColor=none;top=0;left=0;bottom=0;right=0;pointerEvents=1;" parent="157" vertex="1">
                    <mxGeometry width="178" height="71" as="geometry">
                        <mxRectangle width="178" height="71" as="alternateBounds"/>
                    </mxGeometry>
                </mxCell>
                <mxCell id="159" value="user_id(FK)" style="shape=partialRectangle;html=1;whiteSpace=wrap;connectable=0;overflow=hidden;fillColor=none;top=0;left=0;bottom=0;right=0;pointerEvents=1;" parent="157" vertex="1">
                    <mxGeometry x="178" width="178" height="71" as="geometry">
                        <mxRectangle width="178" height="71" as="alternateBounds"/>
                    </mxGeometry>
                </mxCell>
                <mxCell id="160" value="prescription_id(FK)" style="shape=partialRectangle;html=1;whiteSpace=wrap;connectable=0;overflow=hidden;fillColor=none;top=0;left=0;bottom=0;right=0;pointerEvents=1;" parent="157" vertex="1">
                    <mxGeometry x="356" width="177" height="71" as="geometry">
                        <mxRectangle width="177" height="71" as="alternateBounds"/>
                    </mxGeometry>
                </mxCell>
                <mxCell id="161" value="date_taken" style="shape=partialRectangle;html=1;whiteSpace=wrap;connectable=0;overflow=hidden;fillColor=none;top=0;left=0;bottom=0;right=0;pointerEvents=1;" parent="157" vertex="1">
                    <mxGeometry x="533" width="178" height="71" as="geometry">
                        <mxRectangle width="178" height="71" as="alternateBounds"/>
                    </mxGeometry>
                </mxCell>
                <mxCell id="163" value="" style="shape=tableRow;horizontal=0;startSize=0;swimlaneHead=0;swimlaneBody=0;top=0;left=0;bottom=0;right=0;collapsible=0;dropTarget=0;fillColor=none;points=[[0,0.5],[1,0.5]];portConstraint=eastwest;" parent="156" vertex="1">
                    <mxGeometry y="101" width="711" height="66" as="geometry"/>
                </mxCell>
                <mxCell id="164" value="1" style="shape=partialRectangle;html=1;whiteSpace=wrap;connectable=0;overflow=hidden;fillColor=none;top=0;left=0;bottom=0;right=0;pointerEvents=1;" parent="163" vertex="1">
                    <mxGeometry width="178" height="66" as="geometry">
                        <mxRectangle width="178" height="66" as="alternateBounds"/>
                    </mxGeometry>
                </mxCell>
                <mxCell id="165" value="1" style="shape=partialRectangle;html=1;whiteSpace=wrap;connectable=0;overflow=hidden;fillColor=none;top=0;left=0;bottom=0;right=0;pointerEvents=1;" parent="163" vertex="1">
                    <mxGeometry x="178" width="178" height="66" as="geometry">
                        <mxRectangle width="178" height="66" as="alternateBounds"/>
                    </mxGeometry>
                </mxCell>
                <mxCell id="166" value="1" style="shape=partialRectangle;html=1;whiteSpace=wrap;connectable=0;overflow=hidden;fillColor=none;top=0;left=0;bottom=0;right=0;pointerEvents=1;" parent="163" vertex="1">
                    <mxGeometry x="356" width="177" height="66" as="geometry">
                        <mxRectangle width="177" height="66" as="alternateBounds"/>
                    </mxGeometry>
                </mxCell>
                <mxCell id="167" value="2024-02-20 12:40" style="shape=partialRectangle;html=1;whiteSpace=wrap;connectable=0;overflow=hidden;fillColor=none;top=0;left=0;bottom=0;right=0;pointerEvents=1;" parent="163" vertex="1">
                    <mxGeometry x="533" width="178" height="66" as="geometry">
                        <mxRectangle width="178" height="66" as="alternateBounds"/>
                    </mxGeometry>
                </mxCell>
                <mxCell id="169" value="" style="shape=tableRow;horizontal=0;startSize=0;swimlaneHead=0;swimlaneBody=0;top=0;left=0;bottom=0;right=0;collapsible=0;dropTarget=0;fillColor=none;points=[[0,0.5],[1,0.5]];portConstraint=eastwest;" parent="156" vertex="1">
                    <mxGeometry y="167" width="711" height="65" as="geometry"/>
                </mxCell>
                <mxCell id="170" value="2" style="shape=partialRectangle;html=1;whiteSpace=wrap;connectable=0;overflow=hidden;fillColor=none;top=0;left=0;bottom=0;right=0;pointerEvents=1;" parent="169" vertex="1">
                    <mxGeometry width="178" height="65" as="geometry">
                        <mxRectangle width="178" height="65" as="alternateBounds"/>
                    </mxGeometry>
                </mxCell>
                <mxCell id="171" value="1" style="shape=partialRectangle;html=1;whiteSpace=wrap;connectable=0;overflow=hidden;fillColor=none;top=0;left=0;bottom=0;right=0;pointerEvents=1;" parent="169" vertex="1">
                    <mxGeometry x="178" width="178" height="65" as="geometry">
                        <mxRectangle width="178" height="65" as="alternateBounds"/>
                    </mxGeometry>
                </mxCell>
                <mxCell id="172" value="1" style="shape=partialRectangle;html=1;whiteSpace=wrap;connectable=0;overflow=hidden;fillColor=none;top=0;left=0;bottom=0;right=0;pointerEvents=1;" parent="169" vertex="1">
                    <mxGeometry x="356" width="177" height="65" as="geometry">
                        <mxRectangle width="177" height="65" as="alternateBounds"/>
                    </mxGeometry>
                </mxCell>
                <mxCell id="173" value="2024-02-20 19:30" style="shape=partialRectangle;html=1;whiteSpace=wrap;connectable=0;overflow=hidden;fillColor=none;top=0;left=0;bottom=0;right=0;pointerEvents=1;" parent="169" vertex="1">
                    <mxGeometry x="533" width="178" height="65" as="geometry">
                        <mxRectangle width="178" height="65" as="alternateBounds"/>
                    </mxGeometry>
                </mxCell>
                <mxCell id="175" value="" style="shape=tableRow;horizontal=0;startSize=0;swimlaneHead=0;swimlaneBody=0;top=0;left=0;bottom=0;right=0;collapsible=0;dropTarget=0;fillColor=none;points=[[0,0.5],[1,0.5]];portConstraint=eastwest;" parent="156" vertex="1">
                    <mxGeometry y="232" width="711" height="65" as="geometry"/>
                </mxCell>
                <mxCell id="176" value="3" style="shape=partialRectangle;html=1;whiteSpace=wrap;connectable=0;overflow=hidden;fillColor=none;top=0;left=0;bottom=0;right=0;pointerEvents=1;" parent="175" vertex="1">
                    <mxGeometry width="178" height="65" as="geometry">
                        <mxRectangle width="178" height="65" as="alternateBounds"/>
                    </mxGeometry>
                </mxCell>
                <mxCell id="177" value="2" style="shape=partialRectangle;html=1;whiteSpace=wrap;connectable=0;overflow=hidden;fillColor=none;top=0;left=0;bottom=0;right=0;pointerEvents=1;" parent="175" vertex="1">
                    <mxGeometry x="178" width="178" height="65" as="geometry">
                        <mxRectangle width="178" height="65" as="alternateBounds"/>
                    </mxGeometry>
                </mxCell>
                <mxCell id="178" value="2" style="shape=partialRectangle;html=1;whiteSpace=wrap;connectable=0;overflow=hidden;fillColor=none;top=0;left=0;bottom=0;right=0;pointerEvents=1;" parent="175" vertex="1">
                    <mxGeometry x="356" width="177" height="65" as="geometry">
                        <mxRectangle width="177" height="65" as="alternateBounds"/>
                    </mxGeometry>
                </mxCell>
                <mxCell id="179" value="2024-02-20 09:30" style="shape=partialRectangle;html=1;whiteSpace=wrap;connectable=0;overflow=hidden;fillColor=none;top=0;left=0;bottom=0;right=0;pointerEvents=1;" parent="175" vertex="1">
                    <mxGeometry x="533" width="178" height="65" as="geometry">
                        <mxRectangle width="178" height="65" as="alternateBounds"/>
                    </mxGeometry>
                </mxCell>
                <mxCell id="181" value="" style="shape=tableRow;horizontal=0;startSize=0;swimlaneHead=0;swimlaneBody=0;top=0;left=0;bottom=0;right=0;collapsible=0;dropTarget=0;fillColor=none;points=[[0,0.5],[1,0.5]];portConstraint=eastwest;" parent="156" vertex="1">
                    <mxGeometry y="297" width="711" height="65" as="geometry"/>
                </mxCell>
                <mxCell id="182" value="4" style="shape=partialRectangle;html=1;whiteSpace=wrap;connectable=0;overflow=hidden;fillColor=none;top=0;left=0;bottom=0;right=0;pointerEvents=1;" parent="181" vertex="1">
                    <mxGeometry width="178" height="65" as="geometry">
                        <mxRectangle width="178" height="65" as="alternateBounds"/>
                    </mxGeometry>
                </mxCell>
                <mxCell id="183" value="2" style="shape=partialRectangle;html=1;whiteSpace=wrap;connectable=0;overflow=hidden;fillColor=none;top=0;left=0;bottom=0;right=0;pointerEvents=1;" parent="181" vertex="1">
                    <mxGeometry x="178" width="178" height="65" as="geometry">
                        <mxRectangle width="178" height="65" as="alternateBounds"/>
                    </mxGeometry>
                </mxCell>
                <mxCell id="184" value="2" style="shape=partialRectangle;html=1;whiteSpace=wrap;connectable=0;overflow=hidden;fillColor=none;top=0;left=0;bottom=0;right=0;pointerEvents=1;" parent="181" vertex="1">
                    <mxGeometry x="356" width="177" height="65" as="geometry">
                        <mxRectangle width="177" height="65" as="alternateBounds"/>
                    </mxGeometry>
                </mxCell>
                <mxCell id="185" value="2024-02-20 13:30" style="shape=partialRectangle;html=1;whiteSpace=wrap;connectable=0;overflow=hidden;fillColor=none;top=0;left=0;bottom=0;right=0;pointerEvents=1;" parent="181" vertex="1">
                    <mxGeometry x="533" width="178" height="65" as="geometry">
                        <mxRectangle width="178" height="65" as="alternateBounds"/>
                    </mxGeometry>
                </mxCell>
                <mxCell id="193" style="shape=tableRow;horizontal=0;startSize=0;swimlaneHead=0;swimlaneBody=0;top=0;left=0;bottom=0;right=0;collapsible=0;dropTarget=0;fillColor=none;points=[[0,0.5],[1,0.5]];portConstraint=eastwest;" parent="156" vertex="1">
                    <mxGeometry y="362" width="711" height="65" as="geometry"/>
                </mxCell>
                <mxCell id="194" value="5" style="shape=partialRectangle;html=1;whiteSpace=wrap;connectable=0;overflow=hidden;fillColor=none;top=0;left=0;bottom=0;right=0;pointerEvents=1;" parent="193" vertex="1">
                    <mxGeometry width="178" height="65" as="geometry">
                        <mxRectangle width="178" height="65" as="alternateBounds"/>
                    </mxGeometry>
                </mxCell>
                <mxCell id="195" value="1" style="shape=partialRectangle;html=1;whiteSpace=wrap;connectable=0;overflow=hidden;fillColor=none;top=0;left=0;bottom=0;right=0;pointerEvents=1;" parent="193" vertex="1">
                    <mxGeometry x="178" width="178" height="65" as="geometry">
                        <mxRectangle width="178" height="65" as="alternateBounds"/>
                    </mxGeometry>
                </mxCell>
                <mxCell id="196" value="3" style="shape=partialRectangle;html=1;whiteSpace=wrap;connectable=0;overflow=hidden;fillColor=none;top=0;left=0;bottom=0;right=0;pointerEvents=1;" parent="193" vertex="1">
                    <mxGeometry x="356" width="177" height="65" as="geometry">
                        <mxRectangle width="177" height="65" as="alternateBounds"/>
                    </mxGeometry>
                </mxCell>
                <mxCell id="197" value="2024-02-20 19:30" style="shape=partialRectangle;html=1;whiteSpace=wrap;connectable=0;overflow=hidden;fillColor=none;top=0;left=0;bottom=0;right=0;pointerEvents=1;" parent="193" vertex="1">
                    <mxGeometry x="533" width="178" height="65" as="geometry">
                        <mxRectangle width="178" height="65" as="alternateBounds"/>
                    </mxGeometry>
                </mxCell>
            </root>
        </mxGraphModel>
    </diagram>
</mxfile>